<svg width="13" height="13" viewBox="0 0 13 13" fill="none" xmlns="http://www.w3.org/2000/svg">
<path d="M3.73274 4.41266C3.53748 4.2174 3.2209 4.2174 3.02563 4.41266C2.83037 4.60792 2.83037 4.92451 3.02563 5.11977L3.73274 4.41266ZM4.0727 5.45974L3.71914 5.81327C3.91441 6.00854 4.23099 6.00854 4.42625 5.81327L4.0727 5.45974ZM5.81327 4.42626C6.00854 4.23099 6.00854 3.91441 5.81327 3.71915C5.61801 3.52388 5.30147 3.52388 5.10618 3.71915L5.81327 4.42626ZM7.19354 4.61298C6.91741 4.61298 6.69354 4.83683 6.69354 5.11298C6.69354 5.38914 6.91741 5.61301 7.19354 5.61301V4.61298ZM9.62081 5.61301C9.89694 5.61301 10.1208 5.38914 10.1208 5.11298C10.1208 4.83683 9.89694 4.61298 9.62081 4.61298V5.61301ZM3.73274 7.88028C3.53748 7.68501 3.2209 7.68501 3.02563 7.88028C2.83037 8.07548 2.83037 8.39207 3.02563 8.58734L3.73274 7.88028ZM4.0727 8.92734L3.71914 9.28088C3.91441 9.47614 4.23099 9.47614 4.42625 9.28088L4.0727 8.92734ZM5.81327 7.89381C6.00854 7.69854 6.00854 7.38201 5.81327 7.18674C5.61801 6.99147 5.30147 6.99147 5.10618 7.18674L5.81327 7.89381ZM7.19354 8.08054C6.91741 8.08054 6.69354 8.30441 6.69354 8.58054C6.69354 8.85668 6.91741 9.08054 7.19354 9.08054V8.08054ZM9.62081 9.08054C9.89694 9.08054 10.1208 8.85668 10.1208 8.58054C10.1208 8.30441 9.89694 8.08054 9.62081 8.08054V9.08054ZM1.22204 8.41888C0.925986 7.15674 0.925986 5.84327 1.22204 4.58114L0.248465 4.35277C-0.0828218 5.76507 -0.0828218 7.23494 0.248465 8.64728L1.22204 8.41888ZM11.7779 4.58114C12.074 5.84327 12.074 7.15674 11.7779 8.41888L12.7515 8.64721C13.0828 7.23494 13.0828 5.76507 12.7515 4.35278L11.7779 4.58114ZM8.41888 11.7779C7.15674 12.074 5.84327 12.074 4.58114 11.7779L4.35278 12.7515C5.76507 13.0828 7.23494 13.0828 8.64721 12.7515L8.41888 11.7779ZM4.58114 1.22204C5.84327 0.925986 7.15674 0.925986 8.41888 1.22204L8.64721 0.248465C7.23494 -0.0828218 5.76507 -0.0828218 4.35278 0.248465L4.58114 1.22204ZM4.58114 11.7779C2.91441 11.387 1.613 10.0856 1.22204 8.41888L0.248465 8.64728C0.726159 10.6837 2.31627 12.2739 4.35278 12.7515L4.58114 11.7779ZM8.64721 12.7515C10.6837 12.2739 12.2739 10.6837 12.7515 8.64721L11.7779 8.41888C11.387 10.0856 10.0856 11.387 8.41888 11.7779L8.64721 12.7515ZM8.41888 1.22204C10.0856 1.613 11.387 2.91441 11.7779 4.58114L12.7515 4.35278C12.2739 2.31627 10.6837 0.726159 8.64721 0.248465L8.41888 1.22204ZM4.35278 0.248465C2.31627 0.726159 0.726159 2.31627 0.248465 4.35277L1.22204 4.58114C1.613 2.9144 2.91441 1.613 4.58114 1.22204L4.35278 0.248465ZM3.02563 5.11977L3.71914 5.81327L4.42625 5.10618L3.73274 4.41266L3.02563 5.11977ZM4.42625 5.81327L5.81327 4.42626L5.10618 3.71915L3.71914 5.10618L4.42625 5.81327ZM7.19354 5.61301H9.62081V4.61298H7.19354V5.61301ZM3.02563 8.58734L3.71914 9.28088L4.42625 8.57374L3.73274 7.88028L3.02563 8.58734ZM4.42625 9.28088L5.81327 7.89381L5.10618 7.18674L3.71914 8.57374L4.42625 9.28088ZM7.19354 9.08054H9.62081V8.08054H7.19354V9.08054Z" fill="#EB5400"/>
</svg>
